<?xml version="1.0" standalone="no"?>
<!DOCTYPE svg PUBLIC "-//W3C//DTD SVG 20010904//EN"
 "http://www.w3.org/TR/2001/REC-SVG-20010904/DTD/svg10.dtd">
<svg version="1.0" xmlns="http://www.w3.org/2000/svg" >

<g transform="translate(0.000000,630.000000) scale(0.100000,-0.100000)"  stroke="none">
<path d="M2770 4670 l0 -1200 330 0 330 0 0 1200 0 1200 -330 0 -330 0 0
-1200z"/>
<path d="M1800 5076 c-243 -194 -425 -426 -566 -721 -136 -285 -195 -554 -196
-885 -1 -334 61 -605 207 -905 253 -523 724 -921 1275 -1080 207 -60 348 -79
580 -79 232 0 373 19 580 79 551 159 1022 557 1275 1080 146 300 208 571 207
905 -1 332 -60 600 -196 885 -105 220 -213 377 -374 546 -90 95 -289 262 -305
256 -5 -1 -92 -120 -193 -262 l-183 -260 32 -25 c77 -59 252 -241 308 -319
104 -147 188 -335 230 -521 26 -111 36 -366 20 -481 -90 -636 -572 -1123
-1206 -1219 -91 -14 -300 -14 -395 0 -424 64 -789 309 -1013 680 -91 152 -161
352 -188 539 -16 115 -6 370 20 481 42 186 126 374 230 521 56 78 232 261 308
319 l32 25 -183 260 c-101 142 -187 260 -193 262 -5 2 -56 -34 -113 -81z"/>
<path d="M2659 1014 c-29 -16 -55 -41 -69 -65 -20 -36 -21 -51 -18 -157 3
-105 6 -121 27 -151 36 -50 99 -74 193 -74 102 0 161 28 195 92 19 38 23 59
23 142 0 105 -9 140 -43 178 -39 42 -94 61 -182 61 -67 0 -87 -5 -126 -26z
m161 -114 c16 -16 20 -33 20 -95 0 -62 -4 -79 -20 -95 -24 -24 -29 -24 -58 -4
-20 14 -22 24 -22 99 0 75 2 85 22 99 29 20 34 20 58 -4z"/>
<path d="M3075 1028 c-3 -8 -4 -112 -3 -233 l3 -220 75 0 75 0 5 87 5 87 59
-90 59 -89 68 0 69 0 0 235 0 235 -75 0 -74 0 -3 -99 -3 -100 -60 97 -61 97
-67 3 c-49 2 -69 -1 -72 -10z"/>
</g>
</svg>
