<?xml version="1.0" standalone="no"?>
<!DOCTYPE svg PUBLIC "-//W3C//DTD SVG 20010904//EN"
 "http://www.w3.org/TR/2001/REC-SVG-20010904/DTD/svg10.dtd">
<svg version="1.0" xmlns="http://www.w3.org/2000/svg"
 width="1600.000000pt" height="1600.000000pt" viewBox="0 0 1600.000000 1600.000000"
 preserveAspectRatio="xMidYMid meet">

<g transform="translate(0.000000,1600.000000) scale(0.100000,-0.100000)" stroke="none">
<path d="M4583 14563 c-214 -263 -526 -683 -713 -963 -309 -461 -497 -840
-529 -1064 -23 -158 29 -382 127 -551 253 -433 775 -688 1324 -644 513 40 922
293 1108 684 69 145 109 343 96 480 -25 282 -285 764 -774 1440 -200 276 -539
713 -553 715 -3 0 -42 -44 -86 -97z"/>
<path d="M11225 14533 c-576 -728 -970 -1323 -1130 -1708 -83 -200 -105 -322
-86 -470 62 -471 480 -875 1021 -990 240 -50 558 -32 803 46 103 33 297 133
386 199 262 194 411 452 440 763 6 60 6 122 0 164 -40 280 -308 770 -774 1413
-215 297 -538 711 -554 710 -3 -1 -51 -58 -106 -127z"/>
<path d="M5225 10470 c-91 -15 -1413 -349 -1479 -374 -228 -86 -379 -292 -407
-555 -5 -48 -9 -855 -9 -1813 l0 -1728 1335 0 1335 0 -2 1968 -3 1967 -27 80
c-92 272 -316 440 -609 458 -46 3 -106 2 -134 -3z"/>
<path d="M11895 10470 c-27 -4 -355 -84 -728 -178 -569 -143 -692 -177 -760
-210 -150 -73 -266 -189 -338 -337 -73 -150 -69 -23 -69 -1982 l0 -1763 1335
0 1335 0 -2 1958 c-3 1828 -4 1961 -21 2017 -87 300 -312 479 -627 499 -41 2
-97 1 -125 -4z"/>
<path d="M2000 5297 c0 -18 5 -71 10 -117 76 -614 556 -1094 1170 -1170 46 -5
250 -10 452 -10 l368 0 0 -665 0 -665 -1000 0 -1000 0 0 -670 0 -670 2665 0
2665 0 0 670 0 670 -1000 0 -1000 0 0 664 0 664 423 5 c378 4 431 6 512 24
415 94 745 351 933 728 75 150 132 374 132 518 l0 57 -2665 0 -2665 0 0 -33z"/>
<path d="M8670 5273 c0 -86 26 -231 61 -341 62 -194 170 -371 316 -523 191
-197 412 -320 688 -382 81 -18 134 -20 513 -24 l422 -5 0 -664 0 -664 -1000 0
-1000 0 0 -670 0 -670 2665 0 2665 0 0 670 0 670 -1000 0 -1000 0 0 665 0 665
368 0 c202 0 406 5 452 10 614 76 1094 556 1170 1170 5 46 10 99 10 117 l0 33
-2665 0 -2665 0 0 -57z"/>
</g>
</svg>
