<?xml version="1.0" standalone="no"?>
<!DOCTYPE svg PUBLIC "-//W3C//DTD SVG 20010904//EN"
 "http://www.w3.org/TR/2001/REC-SVG-20010904/DTD/svg10.dtd">
<svg version="1.0" xmlns="http://www.w3.org/2000/svg" >

<g transform="translate(0.000000,607.000000) scale(0.100000,-0.100000)"
 stroke="none">
<path d="M4629 5495 c-105 -28 -196 -127 -219 -235 -8 -40 -10 -645 -8 -2285
l3 -2230 28 -56 c94 -192 342 -238 498 -92 26 24 57 67 70 96 l24 52 0 2265 0
2265 -24 48 c-46 93 -111 148 -206 173 -61 17 -105 16 -166 -1z"/>
<path d="M2909 4157 c-105 -30 -196 -128 -218 -233 -9 -45 -11 -427 -9 -1619
l3 -1560 29 -58 c35 -67 89 -120 155 -150 67 -31 189 -30 252 1 70 34 122 84
154 148 l30 59 0 1595 0 1595 -28 57 c-32 64 -90 122 -153 149 -56 25 -156 33
-215 16z"/>
<path d="M1260 2795 c-103 -34 -187 -128 -209 -232 -9 -43 -11 -282 -9 -938
l3 -880 25 -50 c57 -113 163 -179 287 -179 62 0 80 4 139 34 76 39 135 105
157 175 9 31 12 254 12 945 l0 905 -28 57 c-32 65 -90 122 -156 151 -59 26
-162 32 -221 12z"/>
</g>
</svg>
