<?xml version="1.0" standalone="no"?>
<!DOCTYPE svg PUBLIC "-//W3C//DTD SVG 20010904//EN"
 "http://www.w3.org/TR/2001/REC-SVG-20010904/DTD/svg10.dtd">
<svg version="1.0" xmlns="http://www.w3.org/2000/svg"
 width="607.000000pt" height="628.000000pt" >

<g transform="translate(0.000000,628.000000) scale(0.100000,-0.100000)" stroke="none">
<path d="M997 5843 c-246 -228 -297 -282 -297 -312 0 -26 265 -310 2061 -2203
1133 -1195 2089 -2201 2124 -2236 45 -44 70 -62 89 -62 20 0 67 40 205 170
185 176 205 203 177 245 -15 22 -4092 4326 -4186 4418 -67 65 -83 63 -173 -20z"/>
<path d="M2710 5091 l0 -730 301 -318 c166 -175 312 -329 325 -343 l24 -25 0
1073 0 1072 -325 0 -325 0 0 -729z"/>
<path d="M4197 5078 c-13 -18 -97 -136 -186 -263 l-162 -230 43 -34 c92 -74
256 -249 316 -340 152 -228 228 -460 239 -729 10 -243 -38 -476 -142 -682 -20
-40 -35 -75 -33 -80 5 -14 450 -480 458 -480 5 0 27 29 49 65 214 339 322 709
322 1105 0 178 -10 287 -43 445 -83 408 -327 831 -635 1101 -85 74 -187 154
-197 154 -3 0 -16 -15 -29 -32z"/>
<path d="M1306 4558 c-152 -229 -256 -492 -312 -788 -25 -132 -30 -476 -9
-625 64 -468 271 -875 611 -1208 165 -161 318 -269 525 -371 569 -281 1246
-284 1814 -7 129 63 245 131 246 144 0 4 -102 115 -226 247 l-226 238 -72 -35
c-204 -100 -390 -143 -619 -143 -389 -1 -734 143 -1008 421 -265 269 -409 619
-410 994 0 235 70 501 185 696 l34 59 -225 237 c-124 131 -229 239 -233 241
-4 1 -37 -44 -75 -100z"/>
<path d="M2405 1021 c-77 -35 -105 -91 -105 -213 0 -133 21 -178 105 -220 29
-15 59 -21 116 -21 91 -1 161 28 196 81 44 67 43 245 -1 312 -37 56 -95 80
-192 80 -55 0 -91 -6 -119 -19z m153 -116 c12 -11 22 -97 16 -142 -7 -62 -30
-83 -70 -64 -30 13 -37 44 -32 127 3 50 9 70 23 80 16 12 49 11 63 -1z"/>
<path d="M2810 805 l0 -236 78 3 77 3 3 73 3 72 100 0 100 0 -3 63 -3 62 -97
3 c-96 3 -98 3 -98 27 0 24 1 24 103 27 l102 3 0 65 0 65 -182 3 -183 2 0
-235z"/>
<path d="M3240 805 l0 -236 78 3 77 3 3 73 3 72 100 0 100 0 -3 63 -3 62 -97
3 c-96 3 -98 3 -98 27 0 24 1 24 103 27 l102 3 0 65 0 65 -182 3 -183 2 0
-235z"/>
</g>
</svg>
